<?xml version="1.0" encoding="UTF-8"?>
<svg xmlns="http://www.w3.org/2000/svg" xmlns:xlink="http://www.w3.org/1999/xlink" width="40px" height="40px" viewBox="0 0 40 40" version="1.1">
<g id="surface1">
<path style=" stroke:none;fill-rule:nonzero;fill:rgb(0%,0%,0%);fill-opacity:1;" d="M 20 2.398438 C 10.28125 2.398438 2.398438 10.28125 2.398438 20 C 2.398438 29.71875 10.28125 37.601562 20 37.601562 C 29.71875 37.601562 37.601562 29.71875 37.601562 20 C 37.601562 10.28125 29.71875 2.398438 20 2.398438 Z M 16.800781 8.800781 L 30.398438 8.800781 L 29.585938 9.503906 C 29.585938 9.535156 29.601562 9.566406 29.601562 9.601562 L 29.601562 13.824219 C 30.078125 14.09375 30.398438 14.609375 30.398438 15.199219 L 30.398438 20 C 30.398438 20.878906 29.679688 21.601562 28.800781 21.601562 C 27.921875 21.601562 27.199219 20.878906 27.199219 20 L 27.199219 15.199219 C 27.199219 14.609375 27.519531 14.09375 28 13.824219 L 28 10.855469 L 25.128906 13.320312 C 25.40625 13.878906 25.601562 14.558594 25.601562 15.390625 C 25.601562 17.566406 24.382812 18.648438 23.175781 19.609375 C 22.800781 19.992188 22.359375 20.410156 22.359375 21.054688 C 22.359375 21.695312 22.800781 22.054688 23.121094 22.3125 L 24.152344 23.136719 C 25.421875 24.222656 26.578125 25.222656 26.578125 27.25 C 26.578125 30.007812 23.945312 32.800781 18.984375 32.800781 C 14.800781 32.800781 12.785156 30.777344 12.785156 28.601562 C 12.785156 27.542969 13.304688 26.046875 15.007812 25.015625 C 16.792969 23.902344 19.214844 23.753906 20.519531 23.664062 C 20.113281 23.136719 19.648438 22.585938 19.648438 21.664062 C 19.648438 21.175781 19.800781 20.878906 19.945312 20.519531 C 19.625 20.550781 19.304688 20.585938 19.015625 20.585938 C 15.976562 20.585938 14.238281 18.28125 14.222656 16 L 8.800781 16 Z M 19.414062 11.390625 C 18.671875 11.390625 17.863281 11.769531 17.398438 12.367188 C 16.910156 12.976562 16.757812 13.769531 16.757812 14.527344 C 16.757812 16.496094 17.898438 19.757812 20.367188 19.757812 C 21.097656 19.757812 21.871094 19.40625 22.335938 18.9375 C 22.992188 18.257812 23.054688 17.320312 23.054688 16.800781 C 23.054688 14.679688 21.816406 11.390625 19.414062 11.390625 Z M 20.832031 24.488281 C 20.574219 24.488281 19.015625 24.542969 17.808594 24.960938 C 17.167969 25.199219 15.328125 25.894531 15.328125 27.984375 C 15.328125 30.074219 17.3125 31.570312 20.398438 31.570312 C 23.175781 31.570312 24.640625 30.207031 24.640625 28.390625 C 24.640625 26.894531 23.695312 26.105469 21.503906 24.519531 C 21.273438 24.488281 21.128906 24.488281 20.832031 24.488281 Z M 20.832031 24.488281 "/>
</g>
</svg>
