<?xml version="1.0" encoding="UTF-8"?>
<svg xmlns="http://www.w3.org/2000/svg" xmlns:xlink="http://www.w3.org/1999/xlink" width="40px" height="40px" viewBox="0 0 40 40" version="1.1">
<g id="surface1">
<path style=" stroke:none;fill-rule:nonzero;fill:rgb(0%,0%,0%);fill-opacity:1;" d="M 14.824219 17.398438 L 18.097656 20.457031 L 19.570312 18.878906 L 20.597656 19.839844 L 21.710938 18.648438 L 16.710938 13.980469 L 15.761719 13.089844 L 14.648438 14.28125 L 15.601562 15.167969 L 15.675781 15.242188 L 14.203125 16.820312 Z M 14.824219 17.398438 "/>
<path style=" stroke:none;fill-rule:nonzero;fill:rgb(0%,0%,0%);fill-opacity:1;" d="M 25.800781 14.273438 C 26.367188 15.035156 27.273438 15.535156 28.296875 15.535156 C 30.011719 15.535156 31.40625 14.140625 31.40625 12.425781 C 31.40625 11.328125 30.832031 10.359375 29.972656 9.808594 L 33.941406 5.558594 L 32.914062 4.597656 L 33.578125 3.886719 L 29.683594 0.246094 L 29.019531 0.960938 L 27.992188 0 L 16.367188 12.441406 L 22.316406 18 Z M 28.296875 11.289062 C 28.359375 11.289062 28.417969 11.296875 28.480469 11.308594 C 28.503906 11.3125 28.53125 11.316406 28.554688 11.324219 C 29.054688 11.441406 29.429688 11.886719 29.429688 12.425781 C 29.429688 13.050781 28.921875 13.558594 28.296875 13.558594 C 27.785156 13.558594 27.355469 13.21875 27.214844 12.753906 C 27.199219 12.707031 27.1875 12.65625 27.179688 12.605469 C 27.167969 12.546875 27.160156 12.488281 27.160156 12.425781 C 27.160156 11.796875 27.667969 11.289062 28.296875 11.289062 Z M 28.296875 11.289062 "/>
<path style=" stroke:none;fill-rule:nonzero;fill:rgb(0%,0%,0%);fill-opacity:1;" d="M 17.691406 25.789062 L 6.277344 22.628906 L 5.882812 24.058594 L 17.296875 27.214844 Z M 17.691406 25.789062 "/>
<path style=" stroke:none;fill-rule:nonzero;fill:rgb(0%,0%,0%);fill-opacity:1;" d="M 26.09375 34.707031 C 24.382812 35.421875 22.507812 35.816406 20.539062 35.816406 C 19.132812 35.816406 17.761719 35.617188 16.460938 35.238281 C 14.589844 36.339844 13.089844 38.003906 12.195312 40 L 31.382812 40 C 30.332031 37.652344 28.441406 35.765625 26.09375 34.707031 Z M 26.09375 34.707031 "/>
<path style=" stroke:none;fill-rule:nonzero;fill:rgb(0%,0%,0%);fill-opacity:1;" d="M 34.117188 21.351562 C 34.117188 18.648438 33.324219 16.132812 31.960938 14.015625 C 31.566406 14.925781 30.839844 15.660156 29.933594 16.066406 C 30.640625 17.480469 31.046875 19.070312 31.046875 20.757812 C 31.046875 26.5625 26.964844 30.875 21.957031 30.875 C 18.710938 30.875 16.300781 29.617188 14.625 27.417969 L 7.605469 25.476562 C 9.351562 30.957031 14.480469 34.929688 20.539062 34.929688 C 28.039062 34.929688 34.117188 28.851562 34.117188 21.351562 Z M 34.117188 21.351562 "/>
</g>
</svg>
