<?xml version="1.0" encoding="UTF-8"?>
<svg xmlns="http://www.w3.org/2000/svg" xmlns:xlink="http://www.w3.org/1999/xlink" width="40px" height="40px" viewBox="0 0 40 40" version="1.1">
<g id="surface1">
<path style="fill:none;stroke-width:2;stroke-linecap:round;stroke-linejoin:round;stroke:rgb(0%,0%,0%);stroke-opacity:1;stroke-miterlimit:4;" d="M 4.999219 7.999219 L 4.999219 17.020312 M 9 7.999219 L 9 16.999219 M 15 7.999219 L 15 16.999219 M 19.000781 7.999219 L 19.000781 17.020312 M 4.999219 17.020312 C 5.313281 16.999219 5.702344 16.999219 6.199219 16.999219 L 17.800781 16.999219 C 18.297656 16.999219 18.686719 16.999219 19.000781 17.020312 M 4.999219 17.020312 C 4.607812 17.04375 4.328906 17.097656 4.092187 17.217187 C 3.714844 17.409375 3.410156 17.716406 3.217969 18.091406 C 3 18.520312 3 19.080469 3 20.200781 L 3 21 L 21 21 L 21 20.200781 C 21 19.080469 21 18.520312 20.782031 18.091406 C 20.589844 17.716406 20.285156 17.409375 19.907812 17.217187 C 19.671094 17.097656 19.392187 17.04375 19.000781 17.020312 M 3 5.500781 L 3 7.999219 L 21 7.999219 L 21 5.500781 L 12 3 Z M 3 5.500781 " transform="matrix(1.666667,0,0,1.666667,0,0)"/>
</g>
</svg>
